<svg
   viewBox="0 0 71.120002 71.120002">
  <rect
     style="fill:#000000;fill-opacity:1;stroke:none;stroke-width:1.97303;stroke-linejoin:round;stroke-opacity:1;stop-color:#000000"
     id="rect833"
     width="71.11895"
     height="71.11895"
     x="0"
     y="6.9388939e-18"
     ry="14.647575" />
  <g
     id="layer1"
     transform="matrix(0.9081133,0,0,0.9081133,3.2674422,3.2674421)">
    <path
       id="path858"
       style="fill:none;stroke:#fefefe;stroke-width:2;stroke-linecap:butt;stroke-linejoin:round;stroke-miterlimit:4;stroke-dasharray:none;stroke-opacity:1"
       d="m 35.601534,15.18336 h 14.64783 c 14.66023,0 14.32049,18.53931 -0.0961,18.53931 h -14.64195 m -20.359,4.8247 20.35643,-0.0838 M 5.538604,53.67792 35.652984,5.04654 m 0,0 -0.29343,60.4186" />
    <path
       id="rect886"
       style="fill:none;fill-opacity:1;stroke:#fefefe;stroke-width:1;stroke-linecap:round;stroke-linejoin:round;stroke-miterlimit:4;stroke-dasharray:none;stroke-opacity:1"
       d="M 5.010619,48.70765 V 5.04654 h 9.217873 m 8.104401,0 h 43.096331 v 8.334436 m 0,7.62503 V 65.46514 h -7.737548 m -7.649326,0 H 5.010619 V 56.841923 M 55.964553,7.04654 c 8.873251,6.361378 14.654381,16.76202 14.654381,28.51292 0,5.22256 -1.141925,10.17841 -3.18971,14.631485 m -4,6.642237 c -6.406433,8.38004 -16.506811,13.785748 -27.86976,13.785748 -5.191944,0 -10.120295,-1.128575 -14.553117,-3.15379 m -6.673534,-4 C 5.9259526,57.060578 0.49999824,46.943669 0.5,35.55946 c 1.19e-6,-4.613516 0.8911184,-9.018899 2.510619,-13.053418 m 4,-7.301461 C 13.368725,6.3029398 23.786421,0.5 35.559464,0.5 c 4.647516,0 9.083822,0.904299 13.14256,2.54654" />
  </g>
</svg>
